<svg xmlns="http://www.w3.org/2000/svg" viewBox="0 0 512 512">

<path d="M233 2.142C84.051 15.781-21.797 155.274 5.425 302.053 31.094 440.46 164.093 532.162 302.053 506.575c148.563-27.553 240.696-177.053 198.531-322.146C466.823 68.253 353.57-8.899 233 2.142m1.5 79.927c-39.438 7.574-65.839 22.155-91.091 50.308-14.049 15.664-29.044 43.793-31.784 59.623-.238 1.375-1.253 6.325-2.256 11-7.822 36.448 4.756 87.431 28.678 116.243 4.753 5.725 50.506 51.747 88.073 88.591L249.74 431h6.118c7.803 0 3.939 3.442 66.807-59.5 53.554-53.616 57.223-57.879 67.149-78.016 41.922-85.054-7.661-187.747-100.941-209.064-12.633-2.887-44.424-4.262-54.373-2.351m8 28.503c-41.728 5.813-75.178 28.952-92.958 64.305-3.944 7.843-9.21 22.045-9.877 26.641-.319 2.19-1.048 6.406-1.622 9.368-2.971 15.34-.455 40.738 5.658 57.114 9.801 26.259 10.038 26.551 71.067 87.374l41.012 40.873 43.246-42.873c23.786-23.581 46.271-46.614 49.967-51.185 29.588-36.592 34.313-88.367 11.88-130.189-15.049-28.054-44.476-50.78-75.788-58.527-10.081-2.494-33.871-4.115-42.585-2.901m5.478 50.403c-47.168 6.092-74.901 58.398-52.769 99.525 16.05 29.825 55.447 45.869 82.291 33.51 1.1-.506 3.692-1.594 5.76-2.418 33.528-13.358 50.651-57.466 34.933-89.986-13.471-27.872-41.852-44.295-70.215-40.631m.239 30.088c-23.776 4.685-36.193 27.702-28.152 52.187 1.219 3.713 2.603 6.75 3.076 6.75.472 0 .859.618.859 1.373 0 2.214 8.316 9.244 15.166 12.82 5.996 3.13 6.895 3.307 16.834 3.307 11.899 0 18.01-2.236 26.475-9.686 11.553-10.171 15.79-30.92 9.025-44.206-8.791-17.266-25.611-26.027-43.283-22.545" fill-rule="evenodd" fill="#d5d5d5"/>

</svg>